<?xml version="1.0" encoding="UTF-8"?>
<!DOCTYPE svg PUBLIC "-//W3C//DTD SVG 1.0//EN" "http://www.w3.org/TR/2001/REC-SVG-20010904/DTD/svg10.dtd">
<svg enable-background="new 0 0 100 82.922" viewBox="0 0 100 82.922" xml:space="preserve" xmlns="http://www.w3.org/2000/svg">
<path d="m77.958,11.073c-3.73,0-7.339.933-10.544,2.685-3.899-8.221-12.306-13.758-21.721-13.758-12.851,0-23.379,10.141-23.999,22.838-5.901.704-10.96,4.619-13.149,10.09-4.903,1.223-8.545,5.667-8.545,10.945 0,6.223 5.062,11.283 11.281,11.283h27.821l-4.238,8.501h6.463l-12.546,19.265 32.948-23.357-10.714-.128 4.004-4.28h22.938c12.154,0 22.042-9.891 22.042-22.042s-9.887-22.042-22.041-22.042zm0,36.302h-66.677c-1.932,0-3.502-1.571-3.502-3.502 0-1.904 1.532-3.46 3.43-3.502 .062.006.125.009.188.012l3.291.107 .65-3.229c.787-3.915 4.266-6.757 8.266-6.757 .481,0 .978.044 1.474.131l5.257.924-.73-5.284c-.104-.766-.157-1.521-.157-2.249 0-8.958 7.289-16.244 16.247-16.244 7.695,0 14.391,5.462 15.917,12.988l1.405,6.906 5.097-4.871c2.667-2.545 6.163-3.95 9.846-3.95 7.865,0 14.26,6.398 14.26,14.26s-6.397,14.26-14.262,14.26z"></path>
</svg>
